<?xml version="1.0" standalone="no"?><!DOCTYPE svg PUBLIC "-//W3C//DTD SVG 1.1//EN" "http://www.w3.org/Graphics/SVG/1.1/DTD/svg11.dtd"><svg class="icon" width="200px" height="200.00px" viewBox="0 0 1024 1024" version="1.1" xmlns="http://www.w3.org/2000/svg"><path fill="#333333" d="M618.7 434c-0.6-2.5-1.3-4.9-1.9-7.3L704 376l38.1 44.3c6.3 7.3 17.3 8.1 24.5 1.8 7.3-6.3 8.1-17.3 1.8-24.5l-47.6-55.2c-5.5-6.4-14.7-7.9-21.9-3.7l-93.8 54.6c-1.2-2.7-2.3-5.2-3.6-7.8l118.1-70.6c5.3-3.1 8.5-8.8 8.5-14.9V192.5c0-9.6-7.8-17.4-17.4-17.4-9.6 0-17.4 7.8-17.4 17.4v97.6l-110.4 66c-17.8-21.4-41-33.6-70.8-33.6-31.6 0-55.4 11.7-73.2 32.3l-108.3-64.7v-97.6c0-9.6-7.8-17.4-17.4-17.4-9.6 0-17.4 7.8-17.4 17.4v107.4c0 6.1 3.2 11.8 8.5 14.9L420.1 384c-1.2 2.5-2.4 5.2-3.5 7.8L325 338.5c-7.2-4.2-16.5-2.7-21.9 3.7l-47.6 55.2c-6.3 7.3-5.4 18.3 1.8 24.5 7.3 6.3 18.3 5.4 24.5-1.8l38.1-44.3 85.3 49.7c-0.8 3-1.5 6-2.2 9C238 486.7-35.7 598.9 100.6 769c34.1 42.5 68.3 60.2 101.5 60.2 72 0 139.8-82.8 194.1-175.4 20.6 113.9 88.1 198 115.9 198 32.9 0 96.6-83.7 116.2-197.2 54.2 92.2 121.8 174.6 193.6 174.6 33.2 0 67.4-17.7 101.5-60.2 136.8-170.8-139.8-283.2-304.7-335zM350.3 662.3c-26.7 42.2-52.8 75-77.6 97.3-25.6 23.1-49.4 34.8-70.7 34.8-11.1 0-21.9-3.1-33.1-9.5-13.6-7.8-27.5-20.5-41.2-37.7-14.2-17.7-23.3-34.9-27.1-51-3.2-13.7-2.7-26.7 1.6-39.9 7.7-23.7 27.5-48 59.1-72.2 28.9-22.2 67.4-44.1 114.3-65 63.9-28.5 131.3-49.9 179.9-64.1-24.2 55.9-60.7 136.9-105.2 207.3z m211.3 86.9c-9.9 19.9-21.1 37.4-32.4 50.6-6.9 8.1-12.5 12.8-16.1 15.4-3.7-2.8-9.3-8-16.4-16.5-8-9.6-20.3-26.3-32.9-51.3-22.9-45.2-36.4-96.6-38.6-146.1 38.2-73.2 67-144 81.8-177.2 3.5-7.8-2.5-16.1-10.4-16.1-1 0-2.1 0.1-3.1 0.4-12.8 3.5-30.3 8.3-51.1 14.4 1.1-3.7 2.4-7.2 3.6-10.6 7.2-19.1 16.2-33.3 26.9-42.2 10.5-8.7 23-12.8 39.3-12.8 14.3 0 25.6 4 35.7 12.5 10.8 9.1 20.1 23.6 27.7 43 1.2 3 2.3 6.1 3.4 9.2-19.6-5.7-36.2-10.3-48.4-13.6-1.1-0.3-2.1-0.4-3.1-0.4-7.9 0-13.9 8.3-10.4 16.1 14.9 33.3 43.7 104.3 82 177.6-2.2 50.9-15.3 102.7-37.5 147.6z m361.7-52.9c-3.8 16.1-12.9 33.2-27.1 51-13.8 17.2-27.6 29.8-41.2 37.7-11.2 6.4-22 9.5-33.1 9.5-21.3 0-45-11.7-70.7-34.8-24.8-22.4-50.9-55.1-77.6-97.3-44.5-70.4-81-151.4-105.2-207.1 48.7 14.2 116 35.6 179.9 64.1 47 20.9 85.4 42.8 114.3 65 31.6 24.2 51.4 48.5 59.1 72.2 4.3 13 4.8 26 1.6 39.7zM512 320.4c52.5 0 95.1-31.6 95.1-70.6 0-39-42.6-70.6-95.1-70.6-52.5 0-95.1 31.6-95.1 70.6-0.1 39 42.5 70.6 95.1 70.6z m-46.6-92.6C477.3 219 494.2 214 512 214c17.7 0 34.7 5 46.6 13.8 5.2 3.8 13.8 11.8 13.8 22s-8.7 18.2-13.8 22c-11.8 8.8-28.8 13.8-46.6 13.8-17.7 0-34.7-5-46.6-13.8-5.2-3.8-13.8-11.8-13.8-22s8.7-18.2 13.8-22z" /></svg>