<?xml version="1.0" standalone="no"?><!DOCTYPE svg PUBLIC "-//W3C//DTD SVG 1.1//EN" "http://www.w3.org/Graphics/SVG/1.1/DTD/svg11.dtd"><svg class="icon" width="200px" height="200.00px" viewBox="0 0 1024 1024" version="1.1" xmlns="http://www.w3.org/2000/svg"><path d="M519.04 175.36c-1.92 0-3.2-0.64-4.48-1.28-3.2-2.56-3.84-7.04-1.28-10.88l0.64-0.64c23.04-30.08 55.68-50.56 92.8-58.88l170.24-37.12c3.84-0.64 8.32 1.92 8.96 5.76 0.64 3.84-1.92 8.32-5.76 8.96l-170.24 37.12c-33.28 7.04-63.36 26.24-83.84 53.12l-1.28 0.64c-1.28 1.92-3.84 3.2-5.76 3.2zM430.08 174.72c-2.56 0-4.48-1.28-5.76-3.2-20.48-26.88-50.56-46.08-83.84-53.12l-170.24-37.12c-3.84-0.64-6.4-5.12-5.76-8.96 0.64-3.84 5.12-6.4 8.96-5.76l170.24 37.12c36.48 8.32 69.76 28.8 92.8 58.88 2.56 3.2 1.92 8.32-1.28 10.88-1.92 0.64-3.84 1.28-5.12 1.28zM530.56 849.28H418.56c-4.48 0-7.68-3.2-7.68-7.68s3.2-7.68 7.68-7.68h111.36c4.48 0 7.68 3.2 7.68 7.68 0.64 4.48-3.2 7.68-7.04 7.68zM389.12 849.28h-44.8c-4.48 0-7.68-3.2-7.68-7.68s3.2-7.68 7.68-7.68h44.8c4.48 0 7.68 3.2 7.68 7.68s-3.84 7.68-7.68 7.68zM604.8 849.28h-44.16c-4.48 0-7.68-3.2-7.68-7.68s3.2-7.68 7.68-7.68h44.16c4.48 0 7.68 3.2 7.68 7.68s-3.84 7.68-7.68 7.68z" fill="#00ABE0" /><path d="M617.6 772.48c-30.08 124.8-85.12 202.24-142.72 202.24-58.24 0-112.64-77.44-142.72-202.24 0-0.64-0.64-1.28-0.64-1.28l-12.8 9.6c32.64 131.2 90.88 209.92 156.8 209.92s124.16-78.08 156.8-209.92l-12.8-9.6c-1.92 0-1.92 0.64-1.92 1.28z" fill="#00ABE0" /><path d="M641.28 363.52c3.84-1.92 5.76-5.12 7.04-7.04 12.16-25.6-34.56-94.08-62.72-129.28 0.64-2.56 0.64-5.12 0.64-8.32 0-23.04-19.2-42.24-42.24-42.24h-5.12c-25.6-23.04-47.36-35.2-64.64-35.2-17.28 0-39.04 12.16-65.28 35.84-3.2-0.64-6.4-1.28-9.6-1.28-23.04 0-42.24 19.2-42.24 42.24 0 4.48 0.64 8.96 1.92 13.44-28.16 36.48-70.4 99.84-58.88 124.16 1.28 1.92 3.2 5.12 7.04 7.04-16 62.72-24.32 132.48-24.32 202.88 0 34.56 1.92 87.68 7.68 133.76 7.68 58.88 17.28 76.8 26.24 81.28l12.8-9.6c-1.28-2.56-3.2-3.84-6.4-3.84-12.8-6.4-25.6-105.6-25.6-200.96 0-71.68 8.96-143.36 25.6-206.08 0.64-2.56 0-4.48-1.28-6.4-1.28-1.92-3.84-3.2-5.76-3.2-1.92 0-2.56-0.64-2.56-0.64-4.48-9.6 14.08-54.4 59.52-111.36 1.92-2.56 1.92-5.12 0.64-7.68-1.92-3.84-2.56-7.68-2.56-11.52 0-14.72 12.16-26.88 26.88-26.88 3.2 0 6.4 0.64 8.96 1.28 2.56 0.64 5.76 0.64 7.68-1.28 23.68-22.4 44.8-34.56 58.24-34.56 13.44 0 33.28 12.16 56.96 33.28 1.92 1.92 4.48 2.56 7.04 1.92 3.2-1.28 5.12-1.28 7.04-1.28 14.72 0 26.88 12.16 26.88 26.88 0 2.56-0.64 5.12-1.28 7.68-0.64 2.56 0 5.12 1.28 7.04 46.08 56.96 67.84 105.6 63.36 115.84 0 0-0.64 0.64-2.56 0.64-2.56 0-4.48 1.28-5.76 3.2-1.28 1.92-1.92 4.48-1.28 6.4 16.64 62.72 25.6 134.4 25.6 206.08 0 89.6-13.44 192-26.24 200.96-2.56 0-4.48 1.92-5.76 3.84l12.8 9.6c8.96-4.48 17.92-22.4 25.6-80.64 5.12-39.68 8.32-92.16 8.32-133.76 0.64-69.76-7.68-140.16-23.68-202.24z" fill="#211D1C" /><path d="M570.24 920.96h-192c-4.48 0-7.68-3.2-7.68-7.68s3.2-7.68 7.68-7.68h192c4.48 0 7.68 3.2 7.68 7.68s-3.2 7.68-7.68 7.68zM544 955.52H404.48c-4.48 0-7.68-3.2-7.68-7.68s3.2-7.68 7.68-7.68H544c4.48 0 7.68 3.2 7.68 7.68 0 3.84-3.2 7.68-7.68 7.68zM588.8 887.04H359.68c-4.48 0-7.68-3.2-7.68-7.68s3.2-7.68 7.68-7.68H588.8c4.48 0 7.68 3.2 7.68 7.68 0 3.84-3.2 7.68-7.68 7.68z" fill="#00ABE0" /><path d="M403.84 852.48c-26.88 0-54.4-23.68-86.4-73.6-2.56-3.84-1.28-8.32 2.56-10.24 3.2-2.56 8.32-1.28 10.24 2.56 29.44 46.08 53.76 67.84 75.52 66.56 20.48-1.28 40.96-23.04 62.08-65.92 1.92-3.84 6.4-5.12 10.24-3.2 3.84 1.92 5.12 6.4 3.2 10.24-23.68 48.64-48.64 72.96-74.88 74.24-0.64-0.64-1.28-0.64-2.56-0.64z" fill="#211D1C" /><path d="M545.28 852.48h-2.56c-26.24-1.28-51.2-25.6-74.88-74.24-1.92-3.84 0-8.32 3.2-10.24 3.84-1.92 8.32 0 10.24 3.2 21.12 42.88 41.6 64.64 62.08 65.92 21.76 1.28 46.08-20.48 75.52-66.56 2.56-3.84 7.04-4.48 10.24-2.56 3.84 2.56 4.48 7.04 2.56 10.24-32 50.56-59.52 74.24-86.4 74.24z" fill="#211D1C" /><path d="M474.24 782.08c-4.48 0-7.68-3.2-7.68-7.68V414.08c0-4.48 3.2-7.68 7.68-7.68s7.68 3.2 7.68 7.68V774.4c0 4.48-3.2 7.68-7.68 7.68z" fill="#211D1C" /><path d="M474.24 421.76c-0.64 0-1.92 0-2.56-0.64L314.24 364.8c-3.84-1.28-5.76-5.76-4.48-9.6 1.28-3.84 5.76-5.76 9.6-4.48l157.44 56.32c3.84 1.28 5.76 5.76 4.48 9.6-0.64 3.2-3.84 5.12-7.04 5.12z" fill="#211D1C" /><path d="M474.24 421.76c-3.2 0-5.76-1.92-7.04-5.12-1.28-3.84 0.64-8.32 4.48-9.6l157.44-56.32c3.84-1.28 8.32 0.64 9.6 4.48 1.28 3.84-0.64 8.32-4.48 9.6l-157.44 56.32c-0.64 0.64-1.92 0.64-2.56 0.64zM600.32 266.88c-3.2 0-6.4-1.92-7.04-5.12-1.28-3.84 0.64-8.32 4.48-9.6l89.6-30.08-28.8-28.8c-3.2-3.2-3.2-7.68 0-10.88l37.12-38.4c1.28-1.28 3.2-2.56 5.12-2.56h26.88c4.48 0 7.68 3.2 7.68 7.68s-3.2 7.68-7.68 7.68H704l-30.08 30.72 32 32c1.92 1.92 2.56 4.48 1.92 7.04-0.64 2.56-2.56 4.48-5.12 5.76L601.6 266.24c0 0.64-0.64 0.64-1.28 0.64zM348.8 266.88c-0.64 0-1.92 0-2.56-0.64l-101.12-33.92c-2.56-0.64-4.48-3.2-5.12-5.76-0.64-2.56 0-5.12 1.92-7.04l32-32-30.08-30.72h-23.68c-4.48 0-7.68-3.2-7.68-7.68s3.2-7.68 7.68-7.68h26.88c1.92 0 3.84 0.64 5.12 2.56l37.12 38.4c3.2 3.2 2.56 7.68 0 10.88l-28.8 28.8 88.96 30.08c3.84 1.28 6.4 5.76 4.48 9.6 0.64 3.2-1.92 5.12-5.12 5.12zM793.6 583.04h-38.4c-2.56 0-4.48-1.28-5.76-2.56l-37.76-47.36c-1.28-1.92-1.92-4.48-1.28-7.04l18.56-62.72-73.6 21.12c-3.84 1.28-8.32-1.28-9.6-5.12-1.28-3.84 1.28-8.32 5.12-9.6l87.04-24.96c2.56-0.64 5.76 0 7.68 1.92 1.92 1.92 2.56 5.12 1.92 7.68l-21.12 72.32 33.28 40.96h33.92c4.48 0 7.68 3.2 7.68 7.68-0.64 4.48-3.84 7.68-7.68 7.68zM193.92 583.04h-37.76c-4.48 0-7.68-3.2-7.68-7.68s3.2-7.68 7.68-7.68h33.92l33.28-40.96L202.24 454.4c-0.64-2.56 0-5.76 1.92-7.68 1.92-1.92 5.12-2.56 7.68-1.92l86.4 24.96c3.84 1.28 6.4 5.12 5.12 9.6s-5.12 6.4-9.6 5.12l-72.96-21.12 18.56 62.72c0.64 2.56 0 5.12-1.28 7.04l-37.76 47.36c-1.92 1.92-4.48 2.56-6.4 2.56zM236.16 958.08c-1.92 0-3.2-0.64-4.48-1.92l-25.6-20.48c-3.2-2.56-3.84-7.04-1.28-10.88 2.56-3.2 7.68-3.84 10.88-1.28l20.48 16.64 40.96-36.48-48-222.72c-0.64-3.2 0.64-6.4 3.2-7.68l57.6-36.48c3.84-1.92 8.32-1.28 10.24 2.56 1.92 3.84 1.28 8.32-2.56 10.24l-53.12 33.92 47.36 222.08c0.64 2.56-0.64 5.12-2.56 7.04l-48.64 43.52c-1.28 1.28-3.2 1.92-4.48 1.92zM712.96 958.08c-1.92 0-3.84-0.64-5.12-1.92l-48.64-43.52c-1.92-1.92-3.2-4.48-2.56-7.04l47.36-222.08-53.76-33.92c-3.84-1.92-4.48-7.04-2.56-10.24 1.92-3.84 7.04-4.48 10.24-2.56l58.24 37.12c2.56 1.92 3.84 5.12 3.2 7.68l-48 222.72 40.96 36.48 20.48-16.64c3.2-2.56 8.32-1.92 10.88 1.28 2.56 3.2 1.92 8.32-1.28 10.88l-25.6 20.48c-0.64 1.28-2.56 1.28-3.84 1.28z" fill="#211D1C" /></svg>