<?xml version="1.0" standalone="no"?><!DOCTYPE svg PUBLIC "-//W3C//DTD SVG 1.1//EN" "http://www.w3.org/Graphics/SVG/1.1/DTD/svg11.dtd"><svg class="icon" width="200px" height="169.26px" viewBox="0 0 1210 1024" version="1.1" xmlns="http://www.w3.org/2000/svg"><path fill="#333333" d="M1132.237181 239.614501C961.880136 370.959228 720.538273 381.584137 688.598364 385.136637 656.658455 388.689137 496.926318 374.511729 450.809001 392.241637 404.659092 410.004138 390.449091 363.854228 390.449091 363.854228 390.449091 363.854228 844.778001 47.975047 1139.342181 87.019956 1139.342181 87.019956 1302.626818 108.302365 1132.237181 239.614501ZM692.150864 172.182183C514.688819 253.824501 404.659092 335.466819 404.659092 335.466819 404.659092 335.466819 397.554091 353.196728 379.824183 328.361819 379.824183 328.361819 649.553455 115.407365 830.568 55.080047 1011.582546-5.279863 1093.224864-8.832363 1107.402273 12.482638 1121.612273 33.765047 1086.119864 69.257456 1086.119864 69.257456 1086.119864 69.257456 869.612909 90.572456 692.150864 172.182183ZM433.046501 495.166364C443.704001 530.658773 429.494 640.688501 386.896591 662.003501 379.20494 665.849327 368.091155 668.326299 355.315191 669.858111L369.166683 701.015818 283.971864 992.060091 259.136955 1024 223.644546 1020.4475 255.584455 995.612591 344.331774 722.330819 323.016773 679.73341 351.37159 670.281804C331.458035 672.335084 308.089755 672.2699 286.546612 671.292148L294.629364 711.673319 138.449728 992.060091 95.88491 981.435183 124.272319 974.330182 269.794456 701.015818 259.136955 672.62841 263.764983 669.988478C233.910946 667.804831 213.573697 664.741208 223.644546 665.523409 248.93574 667.544098 261.28801 579.807123 216.539546 548.421274 190.498743 530.137305 124.272319 537.763774 124.272319 537.763774 124.272319 537.763774 198.809637 399.346637 372.719183 353.196728 372.719183 353.196728 372.719183 388.689137 390.449091 402.899137 408.211592 417.076546 422.389 459.673955 433.046501 495.166364ZM134.92982 658.451001 0.032592 853.642955 95.88491 669.075909 134.92982 658.451001ZM134.766861 566.183774C145.685095 555.200356 160.807664 548.421274 177.494637 548.421274 210.835991 548.421274 237.854547 575.439829 237.854547 608.748592 237.854547 642.057354 210.835991 669.075909 177.494637 669.075909 159.080302 669.075909 142.588879 660.797607 131.540278 647.760909 120.589452 658.744327 105.499475 665.523409 88.77991 665.523409 55.438556 665.523409 28.452592 638.537445 28.452592 605.196092 28.452592 571.887329 55.438556 544.868774 88.77991 544.868774 107.194246 544.868774 123.685668 553.147077 134.766861 566.183774ZM150.899774 630.031C159.699545 630.031 166.869729 619.732009 166.869729 606.988637 166.869729 594.245266 159.699545 583.913683 150.899774 583.913683 142.067411 583.913683 134.92982 594.245266 134.92982 606.988637 134.92982 619.732009 142.067411 630.031 150.899774 630.031ZM65.704956 583.913683C56.872593 583.913683 49.735001 594.245266 49.735001 606.988637 49.735001 619.732009 56.872593 630.031 65.704956 630.031 74.537318 630.031 81.67491 619.732009 81.67491 606.988637 81.67491 594.245266 74.537318 583.913683 65.704956 583.913683ZM450.809001 612.301092C482.74891 505.823865 422.389 417.076546 422.389 417.076546 521.989369 385.788472 578.047169 404.659092 623.871161 422.519367 621.035679 473.916547 608.194532 602.099876 549.724944 707.892676 536.981572 698.343295 524.694484 688.402814 513.645883 678.364556L514.688819 679.73341 425.9415 896.240364 436.599001 924.627773 401.106592 910.450364 491.35313 657.049556C466.518221 632.116872 450.809001 612.301092 450.809001 612.301092ZM657.896941 435.393106C672.986919 440.901111 693.519717 457.392533 715.714695 478.544575 698.897355 557.579554 667.283364 695.931506 640.688501 754.922563 632.899074 752.315223 624.653363 749.805659 617.613546 747.165728 606.988637 743.189535 596.461504 737.909672 586.09733 732.043159 610.443362 673.57357 665.71896 528.279576 657.896941 435.393106ZM811.045546 582.055953C793.869697 645.837996 765.71043 740.842929 741.429581 780.344123 720.994557 776.824215 700.363984 772.131004 680.580795 766.818549 694.953754 721.157516 731.32614 602.230243 749.44715 512.733314 771.120659 535.873452 792.566027 560.512811 811.045546 582.055953ZM836.17378 611.421115C846.309813 623.251918 854.425157 632.605748 858.955409 637.136001 883.790318 662.003501 940.597727 711.673319 894.447818 761.375728 892.687864 763.266049 889.852382 764.276393 887.831694 765.938572L958.327636 924.627773 1015.135046 924.627773 1000.925045 945.942773 951.255228 953.015182 855.402909 789.763137 854.881441 781.419651C845.495019 783.798848 835.358987 785.33066 824.375569 786.015086L816.358 800.420637 887.342818 921.075273 912.210319 953.015182 873.165409 942.390273 791.523091 807.493046 803.353894 786.797288C794.586715 786.63433 785.493619 785.949903 776.270155 785.069926 788.687609 753.260384 817.759445 676.734969 836.17378 611.421115Z" /></svg>